<svg width="15" height="15" viewBox="0 0 15 15" fill="none" xmlns="http://www.w3.org/2000/svg">
<path d="M0.916395 1.63064C0.507528 2.03955 0.277832 2.59412 0.277832 3.17237C0.277832 3.75062 0.507528 4.30519 0.916395 4.71409L2.11665 5.9151C2.12586 5.90467 2.13544 5.89458 2.14539 5.88485L5.1706 2.85964C5.18033 2.8497 5.19042 2.84011 5.20085 2.8309L3.99984 1.63064C3.59094 1.22178 3.03637 0.992081 2.45812 0.992081C1.87987 0.992081 1.3253 1.22178 0.916395 1.63064ZM6.00102 3.63106C5.99181 3.6415 5.98223 3.65159 5.97228 3.66132L2.94707 6.68653C2.93734 6.69648 2.92725 6.70606 2.91682 6.71527L10.1682 13.9667C10.5796 14.3642 11.1306 14.5843 11.7027 14.5794C12.2747 14.5745 12.8219 14.3451 13.2264 13.9406C13.6309 13.5361 13.8603 12.9889 13.8652 12.4169C13.87 11.8449 13.65 11.2938 13.2524 10.8825L6.00102 3.63106ZM10.1849 0.46745C10.2116 0.398926 10.2584 0.340063 10.3191 0.298564C10.3798 0.257065 10.4517 0.234863 10.5252 0.234863C10.5988 0.234863 10.6706 0.257065 10.7313 0.298564C10.7921 0.340063 10.8388 0.398926 10.8656 0.46745L11.1908 1.2956C11.2089 1.34246 11.2366 1.38505 11.272 1.42071C11.3074 1.45637 11.3498 1.48433 11.3965 1.50283L12.2216 1.82955C12.2899 1.85677 12.3485 1.90386 12.3898 1.96474C12.4311 2.02561 12.4532 2.09747 12.4532 2.17102C12.4532 2.24457 12.4311 2.31643 12.3898 2.37731C12.3485 2.43818 12.2899 2.48528 12.2216 2.51249L11.3972 2.83922C11.3505 2.85766 11.3081 2.8855 11.2726 2.92102C11.2371 2.95654 11.2092 2.99897 11.1908 3.04569L10.8656 3.87308C10.8388 3.94161 10.7921 4.00047 10.7313 4.04197C10.6706 4.08347 10.5988 4.10567 10.5252 4.10567C10.4517 4.10567 10.3798 4.08347 10.3191 4.04197C10.2584 4.00047 10.2116 3.94161 10.1849 3.87308L9.85967 3.04493C9.84123 2.99821 9.81338 2.95578 9.77787 2.92026C9.74235 2.88475 9.69992 2.8569 9.6532 2.83846L8.82883 2.51174C8.7605 2.48452 8.70191 2.43743 8.66063 2.37655C8.61935 2.31568 8.59729 2.24382 8.59729 2.17027C8.59729 2.09671 8.61935 2.02486 8.66063 1.96398C8.70191 1.9031 8.7605 1.85601 8.82883 1.8288L9.6532 1.50207C9.69999 1.48354 9.74247 1.45558 9.77799 1.41993C9.81351 1.38428 9.84131 1.3417 9.85967 1.29485L10.1849 0.46745ZM13.1095 5.6277C13.1362 5.55918 13.183 5.50032 13.2437 5.45882C13.3045 5.41732 13.3763 5.39512 13.4498 5.39512C13.5234 5.39512 13.5952 5.41732 13.656 5.45882C13.7167 5.50032 13.7635 5.55918 13.7902 5.6277L13.9082 5.92947C13.946 6.02401 14.0201 6.09888 14.1146 6.13594L14.4156 6.25543C14.4837 6.28278 14.5421 6.32987 14.5832 6.39066C14.6243 6.45145 14.6462 6.52315 14.6462 6.59653C14.6462 6.6699 14.6243 6.7416 14.5832 6.80239C14.5421 6.86318 14.4837 6.91028 14.4156 6.93762L14.1146 7.05712C14.0679 7.07556 14.0255 7.1034 13.99 7.13892C13.9544 7.17444 13.9266 7.21687 13.9082 7.26359L13.7902 7.56611C13.7635 7.63463 13.7167 7.69349 13.656 7.73499C13.5952 7.77649 13.5234 7.79869 13.4498 7.79869C13.3763 7.79869 13.3045 7.77649 13.2437 7.73499C13.183 7.69349 13.1362 7.63463 13.1095 7.56611L12.9908 7.26359C12.9724 7.21694 12.9447 7.17455 12.9093 7.13904C12.8739 7.10353 12.8316 7.07565 12.7851 7.05712L12.484 6.93762C12.4159 6.91028 12.3576 6.86318 12.3165 6.80239C12.2754 6.7416 12.2534 6.6699 12.2534 6.59653C12.2534 6.52315 12.2754 6.45145 12.3165 6.39066C12.3576 6.32987 12.4159 6.28278 12.484 6.25543L12.7851 6.13594C12.8316 6.11741 12.8739 6.08952 12.9093 6.05401C12.9447 6.0185 12.9724 5.97611 12.9908 5.92947L13.1095 5.62695V5.6277ZM1.89051 10.2994C1.91723 10.2309 1.96402 10.172 2.02474 10.1305C2.08546 10.089 2.1573 10.0668 2.23085 10.0668C2.3044 10.0668 2.37624 10.089 2.43696 10.1305C2.49768 10.172 2.54447 10.2309 2.57119 10.2994L2.68992 10.6019C2.70809 10.6487 2.73574 10.6912 2.77115 10.7267C2.80656 10.7622 2.84894 10.79 2.89564 10.8084L3.19665 10.9271C3.26498 10.9543 3.32357 11.0014 3.36485 11.0623C3.40613 11.1232 3.42819 11.195 3.42819 11.2686C3.42819 11.3421 3.40613 11.414 3.36485 11.4749C3.32357 11.5357 3.26498 11.5828 3.19665 11.6101L2.89564 11.7296C2.84904 11.748 2.80673 11.7759 2.77135 11.8114C2.73596 11.8469 2.70825 11.8894 2.68992 11.936L2.57119 12.2385C2.54447 12.3071 2.49768 12.3659 2.43696 12.4074C2.37624 12.4489 2.3044 12.4711 2.23085 12.4711C2.1573 12.4711 2.08546 12.4489 2.02474 12.4074C1.96402 12.3659 1.91723 12.3071 1.89051 12.2385L1.77177 11.936C1.75345 11.8894 1.72574 11.8469 1.69035 11.8114C1.65497 11.7759 1.61266 11.748 1.56606 11.7296L1.26505 11.6101C1.19672 11.5828 1.13813 11.5357 1.09685 11.4749C1.05557 11.414 1.0335 11.3421 1.0335 11.2686C1.0335 11.195 1.05557 11.1232 1.09685 11.0623C1.13813 11.0014 1.19672 10.9543 1.26505 10.9271L1.56606 10.8084C1.61273 10.7898 1.65508 10.7618 1.69047 10.7262C1.72586 10.6905 1.75354 10.648 1.77177 10.6011L1.89051 10.2994Z" fill="white"/>
</svg>
